<?xml version="1.0" encoding="utf-8"?>
<!-- Generator: Adobe Illustrator 22.1.0, SVG Export Plug-In . SVG Version: 6.00 Build 0)  -->
<svg version="1.1" id="logo" xmlns="http://www.w3.org/2000/svg" xmlns:xlink="http://www.w3.org/1999/xlink" x="0px" y="0px"
	 viewBox="0 0 110 130" style="enable-background:new 0 0 110 130;" xml:space="preserve">
<style type="text/css">
	.st0{fill:#FFFFFF;}
</style>
<path id="border" class="st0" d="M101.6,130H8.4c-4.6,0-8.4-3.7-8.4-8.3V39.1c0-4.6,3.8-8.3,8.4-8.3h93.2c4.6,0,8.4,3.7,8.4,8.3
	v82.6C110,126.3,106.2,130,101.6,130z M8.4,32.5c-3.7,0-6.7,3-6.7,6.6v82.6c0,3.7,3,6.6,6.7,6.6h93.2c3.7,0,6.7-3,6.7-6.6V39.1
	c0-3.7-3-6.6-6.7-6.6H8.4z"/>
<g id="text">
	<g>
		<path class="st0" d="M9.1,97.8v-0.6c-0.3,0.4-0.9,0.7-1.5,0.7c-1.2,0-2-0.9-2-2.3c0-1.4,0.8-2.4,2-2.4c0.6,0,1.1,0.3,1.5,0.7v-3h1
			v6.9H9.1z M9.1,96.4v-1.8c-0.2-0.3-0.7-0.6-1.2-0.6c-0.8,0-1.3,0.6-1.3,1.5c0,0.9,0.5,1.5,1.3,1.5C8.4,97,8.8,96.8,9.1,96.4z"/>
		<path class="st0" d="M14.1,97.8v-0.6c-0.3,0.4-0.9,0.7-1.6,0.7c-1,0-1.5-0.5-1.5-1.4v-3.2h1v2.8c0,0.7,0.4,0.9,0.9,0.9
			c0.5,0,0.9-0.3,1.2-0.6v-3.1h1v4.5H14.1z"/>
	</g>
	<g>
		<path class="st0" d="M7.2,68.5V62h1.2v5.5h2.9v1H7.2z"/>
		<path class="st0" d="M15,68.5V68c-0.4,0.4-0.9,0.6-1.5,0.6c-0.8,0-1.7-0.5-1.7-1.6c0-1.1,0.9-1.5,1.7-1.5c0.6,0,1.2,0.2,1.5,0.6
			v-0.7c0-0.5-0.5-0.9-1.1-0.9c-0.5,0-1,0.2-1.4,0.6l-0.4-0.7c0.6-0.5,1.2-0.8,2-0.8c1.1,0,2,0.4,2,1.7v3.1H15z M15,67.4v-0.7
			c-0.2-0.3-0.7-0.5-1.1-0.5c-0.6,0-1,0.3-1,0.8c0,0.5,0.4,0.8,1,0.8C14.3,67.9,14.8,67.7,15,67.4z"/>
	</g>
	<g>
		<path class="st0" d="M34.1,68.5v-6.3c0-0.8-0.4-1.4-1.5-1.4c-1,0-1.6,0.6-2,1v6.7h-3.5v-6.3c0-0.8-0.4-1.4-1.5-1.4
			c-0.9,0-1.6,0.6-2,1v6.7h-3.5V58.2h3.5v1.3c0.5-0.6,1.9-1.5,3.6-1.5c1.6,0,2.7,0.6,3.1,1.8c0.6-0.9,2.1-1.8,3.8-1.8
			c2,0,3.3,1,3.3,3.1v7.5H34.1z"/>
		<path class="st0" d="M46.7,68.5v-1c-0.7,0.8-2,1.3-3.4,1.3c-1.7,0-3.8-1.1-3.8-3.4c0-2.5,2.1-3.3,3.8-3.3c1.5,0,2.8,0.4,3.4,1.2
			V62c0-0.9-0.8-1.5-2.2-1.5c-1.1,0-2.2,0.4-3.1,1.1l-1.3-2.1c1.4-1.1,3.3-1.6,5-1.6c2.6,0,5.1,0.9,5.1,4.1v6.5H46.7z M46.7,65.8
			v-0.9c-0.4-0.5-1.2-0.7-2-0.7c-0.9,0-1.8,0.4-1.8,1.2c0,0.8,0.8,1.2,1.8,1.2C45.5,66.6,46.3,66.3,46.7,65.8z"/>
		<path class="st0" d="M52.8,68.5V58.2h3.5v10.3H52.8z"/>
		<path class="st0" d="M57.9,67.2l1.5-2.3c0.8,0.7,2.6,1.4,3.9,1.4c1.1,0,1.5-0.3,1.5-0.8c0-1.3-6.4,0-6.4-4.2
			c0-1.8,1.7-3.4,4.7-3.4c1.8,0,3.4,0.6,4.6,1.4l-1.3,2.2c-0.7-0.6-1.9-1.1-3.2-1.1c-0.8,0-1.4,0.3-1.4,0.7c0,1.2,6.4,0,6.4,4.3
			c0,2-1.8,3.4-5,3.4C61.1,68.8,59.1,68.1,57.9,67.2z"/>
		<path class="st0" d="M69.2,63.3c0-2.9,2.3-5.4,6-5.4c3.8,0,6,2.5,6,5.4c0,2.9-2.2,5.4-6,5.4C71.4,68.8,69.2,66.2,69.2,63.3z
			 M77.6,63.3c0-1.4-0.9-2.5-2.4-2.5c-1.5,0-2.4,1.1-2.4,2.5c0,1.4,0.8,2.5,2.4,2.5C76.7,65.8,77.6,64.7,77.6,63.3z"/>
		<path class="st0" d="M90.5,68.5v-6c0-1.3-0.7-1.7-1.8-1.7c-1.1,0-1.7,0.5-2.1,1v6.7h-3.5V58.2h3.5v1.3c0.7-0.7,2-1.5,3.8-1.5
			c2.5,0,3.7,1.4,3.7,3.3v7.3H90.5z"/>
	</g>
	<g>
		<path class="st0" d="M18.5,97.7V82.4l-4.7,3.3l-5-5.2l10.9-8.2h8v25.4H18.5z"/>
		<path class="st0" d="M28.9,85.5c0-6.7,4-12.8,12.2-12.8c8.2,0,12.2,6.1,12.2,12.8c0,6.7-4,12.9-12.2,12.9
			C32.9,98.3,28.9,92.2,28.9,85.5z M44.7,85.5c0-4.2-1.1-6.2-3.5-6.2c-2.4,0-3.5,2-3.5,6.2c0,4.2,1.1,6.2,3.5,6.2
			C43.6,91.7,44.7,89.7,44.7,85.5z"/>
		<path class="st0" d="M54.4,85.5c0-6.7,3.9-12.8,12-12.8c8.1,0,12,6.1,12,12.8c0,6.7-3.9,12.9-12,12.9
			C58.3,98.3,54.4,92.2,54.4,85.5z M69.9,85.5c0-4.2-1.1-6.2-3.5-6.2c-2.4,0-3.5,2-3.5,6.2c0,4.2,1.1,6.2,3.5,6.2
			C68.8,91.7,69.9,89.7,69.9,85.5z"/>
		<path class="st0" d="M80.8,97.9V92c12.4-8,12.5-8.9,12.3-10.7C93,80,91.6,78.9,89.9,79c-2.9,0.1-3.7,1.3-5.8,2.9l-4.5-5
			c3.1-3.1,7.9-4.5,11.7-4.5c7,0,11.4,3.9,11.4,8.9c0,3.4-2.1,6.2-8.6,10.1h8.8v6.6H80.8z"/>
	</g>
	<g>
		<path class="st0" d="M11.9,118.6v7.5H6.6v-21.9h5.3v1.9c1.3-1.6,3-2.3,4.9-2.3c4.2,0,7.3,3,7.3,8.6c0,5.5-3.1,8.6-7.3,8.6
			C15,120.9,13.3,120.2,11.9,118.6z M18.7,112.4c0-2.4-1.6-4-3.7-4c-1.1,0-2.5,0.6-3.2,1.5v5c0.7,0.8,2,1.5,3.2,1.5
			C17.2,116.3,18.7,114.8,18.7,112.4z"/>
		<path class="st0" d="M36.7,120.5v-1.6c-1,1.2-3,2-5.2,2c-2.5,0-5.7-1.7-5.7-5.4c0-4,3.2-5.2,5.7-5.2c2.2,0,4.2,0.7,5.2,1.9v-2
			c0-1.4-1.2-2.4-3.4-2.4c-1.7,0-3.4,0.6-4.7,1.7l-1.9-3.3c2.1-1.8,5-2.5,7.5-2.5c4,0,7.7,1.5,7.7,6.5v10.2H36.7z M36.7,116.3v-1.5
			c-0.5-0.7-1.8-1.2-3-1.2c-1.4,0-2.7,0.6-2.7,1.9c0,1.3,1.2,1.9,2.7,1.9C34.9,117.5,36.2,117.1,36.7,116.3z"/>
		<path class="st0" d="M45.9,116.1v-7.4h-2.8v-4.5h2.8v-4.5h5.3v4.5h3.4v4.5h-3.4v6c0,0.9,0.5,1.7,1.5,1.7c0.6,0,1.2-0.2,1.3-0.4
			l1,3.9c-0.7,0.6-2,1.1-3.9,1.1C47.7,120.9,45.9,119.3,45.9,116.1z"/>
		<path class="st0" d="M59.4,116.1v-7.4h-2.8v-4.5h2.8v-4.5h5.3v4.5H68v4.5h-3.4v6c0,0.9,0.6,1.7,1.5,1.7c0.6,0,1.2-0.2,1.3-0.4
			l1,3.9c-0.7,0.6-2,1.1-3.9,1.1C61.2,120.9,59.4,119.3,59.4,116.1z"/>
		<path class="st0" d="M69.6,112.4c0-4.7,3.6-8.6,8.8-8.6c4.9,0,8.5,3.6,8.5,9.1v1.1H75.1c0.3,1.5,1.8,2.9,4.2,2.9
			c1.2,0,3.2-0.5,4.1-1.4l2.2,3.2c-1.7,1.5-4.4,2.2-7,2.2C73.5,120.9,69.6,117.7,69.6,112.4z M78.4,107.8c-2.3,0-3.2,1.6-3.4,2.8
			h6.9C81.7,109.5,80.8,107.8,78.4,107.8z"/>
		<path class="st0" d="M88.1,118.4l2.2-3.6c1.2,1.1,3.9,2.2,5.9,2.2c1.6,0,2.2-0.5,2.2-1.3c0-2.1-9.7,0-9.7-6.6
			c0-2.9,2.5-5.4,7.1-5.4c2.8,0,5.2,0.9,7,2.2l-2,3.5c-1-0.9-2.9-1.8-4.9-1.8c-1.2,0-2.1,0.5-2.1,1.2c0,1.9,9.7,0,9.7,6.7
			c0,3.1-2.8,5.4-7.6,5.4C92.9,120.9,89.9,120,88.1,118.4z"/>
	</g>
</g>
<g id="caterpillar">
	<path class="st0" d="M28,37.7c-1.5-0.9-3.3-1.4-5-1.4c-5.4,0-9.7,4.3-9.7,9.6c0,5.3,4.4,9.6,9.7,9.6c1.8,0,3.5-0.5,5-1.4
		c-2-2.3-3.1-5.2-3.1-8.2C24.9,42.9,26,40,28,37.7z"/>
	<path class="st0" d="M43.7,38.3c-1.7-1.3-3.8-2.1-6-2.1c-5.4,0-9.7,4.3-9.7,9.6c0,5.3,4.4,9.6,9.7,9.6c2.1,0,4.2-0.7,6-2.1
		c-1.6-2.2-2.5-4.8-2.5-7.5S42.1,40.5,43.7,38.3z"/>
	<path class="st0" d="M60.7,38.9c-1.8-1.7-4.2-2.7-6.7-2.7c-5.4,0-9.7,4.3-9.7,9.6c0,5.3,4.4,9.6,9.7,9.6c2.5,0,4.9-0.9,6.7-2.7
		c-1.4-2.1-2.1-4.5-2.1-6.9C58.6,43.4,59.3,41,60.7,38.9z"/>
	<path class="st0" d="M77.2,38.2c-1.7-1.2-3.7-1.9-5.7-1.9c-5.4,0-9.7,4.3-9.7,9.6c0,5.3,4.4,9.6,9.7,9.6c2.1,0,4-0.7,5.7-1.9
		c-1.7-2.2-2.7-4.9-2.7-7.7C74.5,43.1,75.4,40.4,77.2,38.2z"/>
	<path class="st0" d="M87.9,42.8c-3,0-5.8-1.1-8-3.1c-1.5,1.7-2.3,3.9-2.3,6.1c0,5.3,4.4,9.6,9.7,9.6c5.4,0,9.7-4.3,9.7-9.6
		c0-2-0.6-3.9-1.9-5.6C93.1,41.9,90.5,42.8,87.9,42.8z"/>
	<path class="st0" d="M94.8,25.6c-1.3,0.8-2.7,1.2-4.3,1.2c-2.6,0-5.3-1.2-7.1-3.3C80.7,25.1,79,27.9,79,31c0,4.8,4,8.7,8.9,8.7
		c4.9,0,8.9-3.9,8.9-8.7C96.7,29.1,96,27.2,94.8,25.6z"/>
	<path class="st0" d="M95,14.3c-1.7-2.7-4.8-4-7.4-3.4c-0.6-5-3.1-9.4-6.2-10.6c-1.4-0.5-3.6-0.6-6,1.7c-0.3-0.1-0.5-0.1-0.8-0.1
		c-1.7,0-3,1.3-3,3c0,1.6,1.4,3,3,3c1.7,0,3-1.3,3-3c0-0.8-0.3-1.6-0.9-2.1c1.4-1.3,2.7-1.7,4.1-1.2c2.6,1,4.8,5.2,5.3,9.8
		c-0.1,0.1-0.2,0.1-0.3,0.2c-0.5,0.3-1,0.8-1.3,1.2c-1.7-2.2-3.7-3.6-5.7-3.9c-1.9-0.3-4.3,0.5-6,2c-0.2,0-0.4-0.1-0.6-0.1
		c-1.6,0-3,1.3-3,2.9c0,1.6,1.3,2.9,3,2.9c1.6,0,3-1.3,3-2.9c0-0.8-0.4-1.6-0.9-2.1c1.4-1.1,2.9-1.5,4.3-1.3
		c1.8,0.3,3.6,1.7,5.2,3.9c-0.8,2-0.7,4.5,0.7,6.7c2.1,3.3,6.2,4.5,9.1,2.7C96.5,21.8,97.1,17.6,95,14.3z M74.6,6.8
		c-1,0-1.9-0.8-1.9-1.9c0-1,0.9-1.9,1.9-1.9c1,0,1.9,0.8,1.9,1.9C76.5,6,75.7,6.8,74.6,6.8z M72.2,15.5c-1,0-1.8-0.8-1.8-1.8
		c0-1,0.8-1.8,1.8-1.8c1,0,1.8,0.8,1.8,1.8C74,14.7,73.2,15.5,72.2,15.5z"/>
</g>
</svg>
