<?xml version="1.0" encoding="utf-8"?>
<!-- Generator: Adobe Illustrator 22.1.0, SVG Export Plug-In . SVG Version: 6.00 Build 0)  -->
<svg version="1.1" id="logo" xmlns="http://www.w3.org/2000/svg" xmlns:xlink="http://www.w3.org/1999/xlink" x="0px" y="0px"
	 viewBox="0 0 90 63" style="enable-background:new 0 0 90 63;" xml:space="preserve">
<style type="text/css">
	.st0{fill:#FFFFFF;}
</style>
<g>
	<g>
		<path class="st0" d="M3.2,36.9v-0.6C2.9,36.7,2.4,37,1.9,37C0.8,37,0,36.2,0,34.8c0-1.3,0.8-2.2,1.9-2.2c0.5,0,1,0.2,1.3,0.7v-2.8
			h0.9v6.4H3.2z M3.2,35.6V34c-0.2-0.3-0.6-0.6-1.1-0.6c-0.7,0-1.2,0.6-1.2,1.4c0,0.8,0.5,1.4,1.2,1.4C2.6,36.2,3,35.9,3.2,35.6z"/>
		<path class="st0" d="M7.8,36.9v-0.5C7.5,36.6,7,37,6.3,37C5.4,37,5,36.5,5,35.6v-2.9h0.9v2.6c0,0.6,0.3,0.8,0.8,0.8
			c0.5,0,0.9-0.3,1.1-0.5v-2.9h0.9v4.1H7.8z"/>
	</g>
	<g>
		<path class="st0" d="M1.4,9.8v-6h1.1v5.1h2.7v0.9H1.4z"/>
		<path class="st0" d="M8.7,9.8V9.3C8.3,9.7,7.8,9.9,7.3,9.9c-0.7,0-1.5-0.5-1.5-1.4c0-1,0.8-1.4,1.5-1.4c0.6,0,1.1,0.2,1.4,0.6V6.9
			c0-0.5-0.4-0.8-1-0.8c-0.5,0-0.9,0.2-1.3,0.5L6,6c0.5-0.5,1.1-0.7,1.8-0.7c1,0,1.8,0.4,1.8,1.6v2.9H8.7z M8.7,8.8V8.1
			C8.5,7.8,8,7.7,7.6,7.7C7.1,7.7,6.7,8,6.7,8.4c0,0.5,0.4,0.8,0.9,0.8C8,9.2,8.5,9.1,8.7,8.8z"/>
	</g>
	<g>
		<path class="st0" d="M26.2,9.8V4c0-0.7-0.4-1.3-1.3-1.3c-0.9,0-1.5,0.5-1.8,0.9v6.2h-3.2V4c0-0.7-0.4-1.3-1.3-1.3
			c-0.9,0-1.5,0.5-1.8,0.9v6.2h-3.2V0.2h3.2v1.2C17.1,0.8,18.4,0,20,0c1.4,0,2.5,0.6,2.9,1.7C23.5,0.9,24.8,0,26.4,0
			c1.9,0,3,0.9,3,2.9v6.9H26.2z"/>
		<path class="st0" d="M37.8,9.8V8.8C37.2,9.5,36,10,34.7,10c-1.6,0-3.5-1-3.5-3.1c0-2.3,1.9-3.1,3.5-3.1c1.3,0,2.5,0.4,3.1,1.1V3.8
			c0-0.8-0.8-1.4-2.1-1.4c-1,0-2.1,0.4-2.9,1l-1.2-1.9c1.3-1,3-1.5,4.6-1.5C38.8,0,41,0.8,41,3.8v6H37.8z M37.8,7.3V6.5
			C37.5,6,36.7,5.8,36,5.8c-0.9,0-1.6,0.4-1.6,1.1C34.4,7.7,35.1,8,36,8C36.7,8,37.5,7.8,37.8,7.3z"/>
		<path class="st0" d="M43.4,9.8V0.2h3.2v9.5H43.4z"/>
		<path class="st0" d="M48.1,8.6l1.3-2.1c0.8,0.6,2.4,1.3,3.6,1.3c1,0,1.4-0.3,1.4-0.7c0-1.2-5.9,0-5.9-3.9C48.5,1.5,50,0,52.9,0
			c1.7,0,3.2,0.5,4.2,1.3l-1.2,2c-0.6-0.6-1.8-1-3-1c-0.8,0-1.3,0.3-1.3,0.7c0,1.1,5.9,0,5.9,3.9c0,1.8-1.7,3.2-4.6,3.2
			C51.1,10,49.2,9.4,48.1,8.6z"/>
		<path class="st0" d="M58.5,5c0-2.7,2.1-5,5.5-5c3.5,0,5.5,2.3,5.5,5c0,2.7-2.1,5-5.5,5C60.6,10,58.5,7.7,58.5,5z M66.2,5
			c0-1.3-0.8-2.3-2.2-2.3c-1.4,0-2.2,1-2.2,2.3c0,1.3,0.8,2.3,2.2,2.3C65.4,7.3,66.2,6.3,66.2,5z"/>
		<path class="st0" d="M78.1,9.8V4.3c0-1.2-0.7-1.6-1.7-1.6c-1,0-1.6,0.5-2,0.9v6.2h-3.2V0.2h3.2v1.2C75.1,0.7,76.3,0,78,0
			c2.3,0,3.4,1.3,3.4,3v6.8H78.1z"/>
	</g>
	<g>
		<path class="st0" d="M11.9,36.7V22.6l-4.3,3.1L3,20.9l10-7.6h7.4v23.4H11.9z"/>
		<path class="st0" d="M21.5,25.5c0-6.2,3.7-11.8,11.2-11.8c7.6,0,11.2,5.6,11.2,11.8c0,6.2-3.7,11.9-11.2,11.9
			C25.1,37.3,21.5,31.7,21.5,25.5z M35.9,25.5c0-3.9-1-5.7-3.2-5.7c-2.2,0-3.2,1.8-3.2,5.7c0,3.9,1,5.8,3.2,5.8
			C34.9,31.2,35.9,29.3,35.9,25.5z"/>
		<path class="st0" d="M44.9,25.5c0-6.2,3.6-11.8,11-11.8c7.4,0,11,5.6,11,11.8c0,6.2-3.6,11.9-11,11.9
			C48.5,37.3,44.9,31.7,44.9,25.5z M59.2,25.5c0-3.9-1-5.7-3.2-5.7c-2.2,0-3.2,1.8-3.2,5.7c0,3.9,1,5.8,3.2,5.8
			C58.2,31.2,59.2,29.3,59.2,25.5z"/>
		<path class="st0" d="M69.2,36.9v-5.4c11.4-7.4,11.5-8.2,11.3-9.9c-0.1-1.2-1.4-2.2-3-2.1c-2.6,0.1-3.4,1.2-5.3,2.7l-4.1-4.6
			c2.9-2.8,7.2-4.2,10.7-4.2c6.5,0,10.5,3.6,10.5,8.2c0,3.1-1.9,5.7-7.9,9.3h8.1v6.1H69.2z"/>
	</g>
	<g>
		<path class="st0" d="M5.8,56.1V63H1V42.8h4.9v1.8c1.2-1.4,2.8-2.1,4.5-2.1c3.8,0,6.7,2.8,6.7,7.9c0,5.1-2.9,7.9-6.7,7.9
			C8.6,58.3,7.1,57.6,5.8,56.1z M12.1,50.3c0-2.3-1.5-3.7-3.4-3.7c-1,0-2.3,0.6-2.9,1.4v4.6C6.4,53.4,7.7,54,8.7,54
			C10.6,54,12.1,52.6,12.1,50.3z"/>
		<path class="st0" d="M28.6,57.9v-1.5c-0.9,1.1-2.8,1.9-4.7,1.9c-2.3,0-5.3-1.6-5.3-5c0-3.7,2.9-4.8,5.3-4.8c2,0,3.8,0.6,4.7,1.8
			v-1.8c0-1.3-1.1-2.2-3.1-2.2c-1.5,0-3.1,0.6-4.3,1.6l-1.7-3c2-1.7,4.6-2.3,6.9-2.3c3.7,0,7.1,1.3,7.1,6v9.4H28.6z M28.6,54v-1.3
			c-0.5-0.7-1.6-1.1-2.7-1.1c-1.3,0-2.4,0.6-2.4,1.8c0,1.2,1.1,1.8,2.4,1.8C27,55.1,28.1,54.7,28.6,54z"/>
		<path class="st0" d="M37.1,53.8V47h-2.5v-4.2h2.5v-4.1h4.8v4.1H45V47h-3.1v5.5c0,0.9,0.5,1.5,1.4,1.5c0.5,0,1.1-0.2,1.2-0.4l1,3.6
			c-0.6,0.6-1.8,1-3.6,1C38.7,58.3,37.1,56.7,37.1,53.8z"/>
		<path class="st0" d="M49.5,53.8V47h-2.5v-4.2h2.5v-4.1h4.8v4.1h3.1V47h-3.1v5.5c0,0.9,0.5,1.5,1.4,1.5c0.5,0,1.1-0.2,1.2-0.4
			l0.9,3.6c-0.6,0.6-1.8,1-3.6,1C51.1,58.3,49.5,56.7,49.5,53.8z"/>
		<path class="st0" d="M58.8,50.3c0-4.4,3.4-7.9,8.1-7.9c4.5,0,7.8,3.3,7.8,8.4v1H63.9c0.3,1.4,1.6,2.7,3.8,2.7
			c1.1,0,2.9-0.5,3.8-1.3l2.1,3c-1.5,1.3-4.1,2-6.4,2C62.5,58.3,58.8,55.2,58.8,50.3z M67,46.1c-2.1,0-2.9,1.5-3.1,2.6h6.3
			C70,47.7,69.2,46.1,67,46.1z"/>
		<path class="st0" d="M75.9,55.9l2-3.3c1.1,1,3.6,2,5.4,2c1.5,0,2.1-0.5,2.1-1.2c0-2-8.9,0-8.9-6.1c0-2.7,2.3-5,6.6-5
			c2.6,0,4.7,0.8,6.4,2l-1.9,3.2c-0.9-0.9-2.7-1.7-4.5-1.7c-1.1,0-1.9,0.5-1.9,1.1c0,1.8,8.9,0,8.9,6.2c0,2.9-2.6,5-7,5
			C80.3,58.3,77.5,57.4,75.9,55.9z"/>
	</g>
	<rect x="9.7" y="61.4" class="st0" width="80" height="1.6"/>
</g>
</svg>
